<svg version="1" xmlns="http://www.w3.org/2000/svg" width="346.667" height="346.667" viewBox="0 0 260.000000 260.000000"><path d="M0 130v130h260V0H0v130zm148.5-67.5C166.1 67 182 79.9 189.9 96c14.4 29.6 10.9 67.8-8.5 91.7-1.9 2.3-3.4 4.4-3.4 4.7 0 .3 4.1 3.8 9 7.7l9 7.1-4.6 5.9c-2.6 3.2-5 5.9-5.3 5.9-.4 0-5.4-3.7-11.2-8.3l-10.4-8.3-5.4 2.3c-8.7 3.8-16.7 5.3-29.1 5.3-13.6 0-21.7-1.7-31.6-6.6-17.1-8.4-29.2-24.7-34.7-46.4-2.9-11.8-2.9-33 .2-44.5 8.9-33.7 35.3-53.6 69.1-52 5.2.2 12.2 1.1 15.5 2z"/><path d="M119 78.4c-10.8 2.3-20.7 9-27.1 18.2l-3 4.4h82.2l-3-4.4c-10.6-15.4-29.7-22.5-49.1-18.2zm-36.2 38.8c-.8 2.7-1.3 9.9-1.3 19.3.1 13.8.3 15.7 2.8 23 5.4 15.5 15.4 26.9 27.9 31.7 9.3 3.6 28.8 3.5 35.6-.2 1-.5-.9-2.5-6.2-6.6-4.1-3.2-7.5-6.1-7.5-6.4-.1-.3 2.2-3.1 5-6.2l5-5.8 9.6 7.7 9.6 7.7 2.4-2.9c4.2-5.2 8.1-12.8 10.5-20.5 2-6.4 2.3-9.6 2.3-22 0-8.8-.5-16.2-1.3-18.8l-1.3-4.2H84.1l-1.3 4.2z"/></svg>