<?xml version="1.0" standalone="no"?>
<!DOCTYPE svg PUBLIC "-//W3C//DTD SVG 20010904//EN"
 "http://www.w3.org/TR/2001/REC-SVG-20010904/DTD/svg10.dtd">
<svg version="1.0" xmlns="http://www.w3.org/2000/svg"
 width="260.000000pt" height="260.000000pt" viewBox="0 0 260.000000 260.000000"
 preserveAspectRatio="xMidYMid meet">
<metadata>
Created by potrace 1.11, written by Peter Selinger 2001-2013
</metadata>
<g transform="translate(0.000000,260.000000) scale(0.100000,-0.100000)"
fill="#000000" stroke="none">
<path d="M0 1300 l0 -1300 1300 0 1300 0 0 1300 0 1300 -1300 0 -1300 0 0
-1300z m1485 675 c176 -45 335 -174 414 -335 144 -296 109 -678 -85 -917 -19
-23 -34 -44 -34 -47 0 -3 41 -38 90 -77 l90 -71 -46 -59 c-26 -32 -50 -59 -53
-59 -4 0 -54 37 -112 83 l-104 83 -54 -23 c-87 -38 -167 -53 -291 -53 -136 0
-217 17 -316 66 -171 84 -292 247 -347 464 -29 118 -29 330 2 445 89 337 353
536 691 520 52 -2 122 -11 155 -20z"/>
<path d="M1190 1816 c-108 -23 -207 -90 -271 -182 l-30 -44 411 0 411 0 -30
44 c-106 154 -297 225 -491 182z"/>
<path d="M828 1428 c-8 -27 -13 -99 -13 -193 1 -138 3 -157 28 -230 54 -155
154 -269 279 -317 93 -36 288 -35 356 2 10 5 -9 25 -62 66 -41 32 -75 61 -75
64 -1 3 22 31 50 62 l50 58 96 -77 96 -77 24 29 c42 52 81 128 105 205 20 64
23 96 23 220 0 88 -5 162 -13 188 l-13 42 -459 0 -459 0 -13 -42z"/>
</g>
</svg>
